<?xml version="1.0" encoding="utf-8"?>
<!-- Generator: Adobe Illustrator 23.0.1, SVG Export Plug-In . SVG Version: 6.00 Build 0)  -->
<svg version="1.1" id="Capa_1" xmlns="http://www.w3.org/2000/svg" xmlns:xlink="http://www.w3.org/1999/xlink" x="0px" y="0px"
	 viewBox="0 0 525.8 194.4" style="enable-background:new 0 0 525.8 194.4;" xml:space="preserve">
<style type="text/css">
	.st0{fill:#5DB3A1;}
	.st1{fill:#FFFFFF;}
</style>
<path class="st0" d="M152.1,30.5c1.1,0,2.2,0,3.7,0c-2.5,6.1-5.1,11.7-8.5,16.9c-0.5,0.7-1.6,1.4-1.1,2.3c0.5,0.8,1.7,0.6,2.6,0.5
	c3.3-0.5,2.7,1.2,1.9,3.1c-1.9,4.7-4,9.4-6.7,13.7c-1,1.6-0.9,2.9-0.4,4.5c5.6,16.4,5.3,32.8-0.9,49c-11.1,28.8-40,46.5-70.5,43.4
	c-10.1-1-19.5-4.1-28.1-9.5c-2.1-1.3-2.8-1-3.6,1.2c-2.3,6.8-4.8,13.6-8,20.5c-1.4-4-2.9-8-4.1-12.1c-0.4-1.2,0.6-2.3,1.1-3.4
	c8.8-20.5,18-40.8,31.2-59c13.4-18.5,30-33.2,50.7-43.1c0.7-0.2,0.9,0.1,0.8,0.7c-19.6,12.4-35,29-47.7,48.3
	c-7.1,10.8-13.1,22.3-18.3,34.1c-1,2.3-0.4,3.2,1.8,4.1c9.4,3.7,18.9,3.2,28.5,0.7c5.6-1.4,11-3.6,16.1-6.4c0.5-0.6,1.1-1.1,1.7-1.7
	c-0.8-0.4-1.5-0.9-2.3-1.3c-2-0.7-3.9-1.5-5.8-3.3c12.9-3,24.1-8.4,34-16.5c0.8-1,0.8-1,2.3-1.8c-1.7,0.3-3.2-0.8-4.8,0
	c-2.5-0.1-5.1,0.3-7.9-0.8c10.8-9.1,22.1-17.5,29.1-30.7c-5.2-0.2-9.8-0.2-14.7-1.4c3.4-3.4,6.8-6.1,9.6-9.4
	c3.7-4.4,6.2-9.3,8.5-14.4c1.1-2.5,0-3.4-2.2-4.1c-3.2-1-3.1-1-1.1-3.7c3.5-4.7,7.5-9.1,9.3-14.9c-0.7-0.6-1.6-0.4-2.4-0.3
	c-1.7,0.1-3.1,0.1-2.9-2.3c0.2-1.9,0.4-3.5,2.9-3.2C148,30.4,150.1,29.9,152.1,30.5z"/>
<path class="st0" d="M121.4,39c-2.1,0.8-4.2,1.5-6.2,2.4c-1.3,0.5-1.9,0.4-1.8-1.2c0.1-1.7,0-3.5,0.7-5.1c0.8-1.9-0.1-2.3-1.8-2.1
	c-5.4,0.4-10.6,1.7-15.6,4C87,41.4,79,48,72.1,55.8c-0.7,0.8-1.5,1.6-2.5,2.8c-0.9-4.6,0.5-8.7,0.7-13.3c-8.3,4.6-14.1,11.3-18.7,19
	C47,72,43.8,80.2,41.4,89.2c-2.3-1.9-2.5-4.6-3.8-6.6c-0.8-0.9-0.9-2.2-1.4-3.3c-0.7,0.6-0.9,1.5-1.6,2.1c-0.1,0.2-0.2,0.3-0.1,0.5
	c-0.3,2.6-1.5,5-2.4,7.4c-3.6,11.8-3,23.5,1,35.1c2.1,6.2-0.6,11.4-3.1,16.6c-0.9,1.9-1.6,0.2-2.1-0.4c-6.5-7.3-11.2-15.6-13.8-24.9
	c-7.7-27-1.9-51,17.8-70.9C45.3,31,62.4,24.9,81.6,25.2c6.6,0.1,13.2,1.4,19.4,3.7c2.3,0.8,4.3,0.8,6.5,0.1
	c4.5-1.4,9.1-2.1,13.9-1.7c-0.7,2.2-1.3,4.2-2,6.2c-0.4,1.3-1.5,2.6,0.9,3.2C121,37,121.6,38,121.4,39z"/>
<path class="st0" d="M121.4,39c-1.1-0.6-1.1-2.8-3.3-2c-1,0.4-1.1-0.9-0.5-1.6c0.6-0.7,1.3-1.2,1.9-1.8c1,1.2,1.9,0.2,2.7-0.1
	c9.4-3.5,19.2-3.7,29.1-3.3c0.3,0,0.5,0.2,0.8,0.4c-2,0-4.1,0.1-6.1,0c-1.4,0-1.9,0.6-2,2c-0.1,1.9-0.3,3.5,2.4,2.9
	c0.7-0.1,1.4-0.1,1.9,0.6C139.1,35.4,130.2,36.9,121.4,39z"/>
<path class="st0" d="M34.5,81.3c0.3-1.5,0.7-2.9,1.9-4.4c0.6,2,1.2,3.7,1.2,5.6C36.6,82.1,35.8,81.1,34.5,81.3z"/>
<path class="st0" d="M32,89.3c0.5-2.6,1.1-5.1,2.4-7.4C35.6,85,33.2,86.9,32,89.3z"/>
<path class="st0" d="M92,137.2c1.3,0,2.5,0.8,4.5,0.3c-1.4,1.6-2.5,2.4-3.9,2.6C92.6,139.1,92.6,138.1,92,137.2z"/>
<path class="st0" d="M112.1,59.3c-0.2-0.2-0.5-0.5-0.8-0.7c1.5-1.1,3.3-1.8,5-2.4c0.3-0.2,0.6-0.2,0.8,0.1
	C115.7,57.5,114,58.5,112.1,59.3z"/>
<path class="st0" d="M117.7,115.6c1.4-0.8,3-0.4,5-0.7c-0.9,1.3-1.5,2.1-2.5,2.5C120.4,115.4,118.8,115.7,117.7,115.6z"/>
<path class="st0" d="M117.3,56.2c-0.3,0-0.6-0.1-0.8-0.1c1.1-0.9,2.3-1.5,4.1-1.7C119.4,55.5,118.6,56.4,117.3,56.2z"/>
<g>
	<path class="st1" d="M188.2,92.6v-1.9l1.9-0.6c1.3-0.4,2.1-1,2.5-1.7c0.4-0.7,0.6-1.7,0.6-3V38.5c0-1.2-0.2-2.2-0.6-2.9
		c-0.4-0.7-1.2-1.3-2.4-1.7l-1.9-0.6v-1.9h23v1.9l-1.8,0.6c-1.2,0.4-2,1-2.4,1.8c-0.4,0.7-0.6,1.8-0.6,3.1v51.2h13.6
		c2.1,0,3.7-0.5,4.7-1.6c1.1-1.1,2-2.6,3-4.5l3.4-7.7h2.6l-0.9,16.6H188.2z"/>
	<path class="st1" d="M238.2,92.6v-1.8l1.4-0.4c1.2-0.4,2.1-0.9,2.5-1.7c0.4-0.7,0.7-1.7,0.7-3V68.8c0-1.9,0-3.7,0-5.3
		c0-1.6,0-3.3-0.1-5.1c0-1.2-0.2-2.2-0.7-2.9c-0.5-0.7-1.3-1.2-2.6-1.4l-1.3-0.3v-1.7l16.2-5.4l1.1,1l-0.3,13.2v25
		c0,1.2,0.2,2.2,0.7,3c0.5,0.7,1.3,1.3,2.5,1.7l1,0.3v1.8H238.2z M248.9,41.6c-2,0-3.8-0.6-5.2-1.9c-1.4-1.3-2.1-2.9-2.1-4.9
		c0-2,0.7-3.7,2.1-5c1.4-1.3,3.2-1.9,5.2-1.9s3.8,0.6,5.2,1.9c1.4,1.3,2.1,2.9,2.1,5c0,2-0.7,3.6-2.1,4.9
		C252.7,41,250.9,41.6,248.9,41.6z"/>
	<path class="st1" d="M278.9,93.8l-15.2-1.2v-1.8l0.9-0.2c2.4-0.6,3.6-2.1,3.6-4.6V37.8c0-1.2-0.2-2.2-0.7-2.9
		c-0.5-0.7-1.3-1.2-2.6-1.5l-1.2-0.3v-1.7l15.9-4l1.2,0.8l-0.4,13.1v9.7c4.4-3,9.1-4.5,14.2-4.5c5.2,0,9.5,1.9,12.9,5.7
		c3.4,3.8,5.1,9.7,5.1,17.6c0,5.3-0.9,9.7-2.6,13.2c-1.7,3.6-4.1,6.2-7,8c-2.9,1.8-6.1,2.7-9.6,2.7c-2.4,0-4.7-0.3-7-0.9
		c-2.3-0.6-4.4-1.6-6.2-2.9L278.9,93.8z M289.1,89.8c2,0,3.8-0.6,5.4-1.8c1.5-1.2,2.8-3.2,3.6-6c0.9-2.8,1.3-6.7,1.3-11.7
		c0-4.9-0.4-8.8-1.2-11.6c-0.8-2.8-2-4.7-3.5-5.8c-1.5-1.1-3.3-1.7-5.4-1.7c-2.8,0-5.6,0.8-8.5,2.4v33.9
		C283.3,89.1,286.1,89.8,289.1,89.8z"/>
	<path class="st1" d="M317,92.6v-1.8l1.4-0.5c1.2-0.3,2.1-0.8,2.6-1.6s0.7-1.7,0.7-3V58.7c-0.1-1.4-0.3-2.4-0.7-3.1
		c-0.4-0.7-1.3-1.2-2.5-1.4l-1.4-0.4v-1.7l15.1-5.4l1.1,1l0.8,8.2v0.6c0.9-1.7,2.1-3.3,3.5-4.8c1.4-1.5,3-2.7,4.6-3.6
		c1.7-0.9,3.3-1.4,5-1.4c2.3,0,4.1,0.6,5.3,1.9c1.2,1.2,1.8,2.8,1.8,4.7c0,2.1-0.6,3.7-1.8,4.8c-1.2,1.1-2.6,1.6-4.3,1.6
		c-2.5,0-4.6-1.1-6.4-3.3l-0.2-0.2c-0.6-0.7-1.3-1.2-2.1-1.3c-0.8-0.1-1.5,0.3-2.3,1.2c-0.6,0.6-1.2,1.3-1.7,2.2
		c-0.5,0.8-1,1.8-1.4,2.9v24.3c0,1.2,0.2,2.1,0.7,2.9c0.5,0.8,1.3,1.3,2.5,1.6l2.8,0.8v1.8H317z"/>
	<path class="st1" d="M379.1,46.7c3.9,0,7.2,0.8,10,2.4c2.8,1.6,4.9,3.8,6.4,6.6c1.5,2.8,2.3,6,2.3,9.7c0,0.8,0,1.6-0.1,2.3
		c-0.1,0.7-0.2,1.4-0.4,2h-27.9c0.1,6.4,1.3,10.9,3.6,13.7c2.3,2.8,5.7,4.2,10.2,4.2c3.1,0,5.6-0.5,7.5-1.5c1.9-1,3.7-2.5,5.3-4.3
		l1.5,1.4c-1.9,3.4-4.4,6-7.6,7.9c-3.2,1.9-7,2.8-11.4,2.8c-4.4,0-8.3-0.9-11.6-2.8c-3.3-1.9-6-4.5-7.8-8c-1.9-3.5-2.8-7.7-2.8-12.6
		c0-5.1,1.1-9.4,3.3-12.9c2.2-3.5,5-6.2,8.5-8.1C371.6,47.7,375.3,46.7,379.1,46.7z M378.6,49.4c-1.8,0-3.4,0.5-4.7,1.5
		c-1.3,1-2.4,2.8-3.2,5.4c-0.8,2.6-1.2,6.2-1.3,10.8h16.6c0.7-6.2,0.4-10.8-0.7-13.5C384.1,50.8,381.9,49.4,378.6,49.4z"/>
	<path class="st1" d="M402.6,92.6v-1.8l1.4-0.5c1.2-0.3,2.1-0.8,2.6-1.6s0.7-1.7,0.7-3V58.7c-0.1-1.4-0.3-2.4-0.7-3.1
		c-0.4-0.7-1.3-1.2-2.5-1.4l-1.4-0.4v-1.7l15.1-5.4l1.1,1l0.8,8.2v0.6c0.9-1.7,2.1-3.3,3.5-4.8c1.4-1.5,3-2.7,4.6-3.6
		c1.7-0.9,3.3-1.4,5-1.4c2.3,0,4.1,0.6,5.3,1.9c1.2,1.2,1.8,2.8,1.8,4.7c0,2.1-0.6,3.7-1.8,4.8c-1.2,1.1-2.6,1.6-4.3,1.6
		c-2.5,0-4.6-1.1-6.4-3.3l-0.2-0.2c-0.6-0.7-1.3-1.2-2.1-1.3c-0.8-0.1-1.5,0.3-2.3,1.2c-0.6,0.6-1.2,1.3-1.7,2.2
		c-0.5,0.8-1,1.8-1.4,2.9v24.3c0,1.2,0.2,2.1,0.7,2.9c0.5,0.8,1.3,1.3,2.5,1.6l2.8,0.8v1.8H402.6z"/>
	<path class="st1" d="M443,92.6v-1.8l1.4-0.4c1.2-0.4,2.1-0.9,2.5-1.7c0.4-0.7,0.6-1.7,0.6-3c0-2.1,0-4.3,0-6.6c0-2.3,0-4.3,0-6.1
		v-4.4c0-1.9,0-3.7,0-5.3c0-1.6,0-3.3,0-5.1c-0.1-1.2-0.3-2.2-0.7-2.9c-0.4-0.7-1.3-1.2-2.5-1.4l-1.3-0.3v-1.7l16.2-5.4l1.1,1
		l-0.3,13.2v25c0.1,1.2,0.3,2.2,0.7,3c0.4,0.7,1.2,1.3,2.4,1.7l1,0.3v1.8H443z M447.7,39.3c1-1.7,2.1-3.6,3.2-5.5
		c1.1-1.9,2.5-4.3,4-7.2c1.1-1.9,2.1-3.3,3.1-4.1c1-0.8,2.1-1.3,3.3-1.3c1.1,0,2.1,0.4,3,1.1c0.9,0.7,1.3,1.7,1.3,3
		c0,1.2-0.4,2.3-1.2,3.2c-0.8,1-2.1,2.1-3.9,3.4c-2.5,1.9-4.6,3.6-6.4,4.9c-1.8,1.4-3.4,2.6-4.8,3.8L447.7,39.3z"/>
	<path class="st1" d="M481.8,93.9c-3.5,0-6.5-1-9-3c-2.4-2-3.7-4.9-3.7-8.7c0-3,1.4-5.7,4.3-8.2c2.9-2.5,7.4-4.3,13.6-5.5
		c1.1-0.2,2.3-0.5,3.7-0.7c1.4-0.2,2.8-0.4,4.1-0.7v-6.6c0-4.2-0.5-7.1-1.6-8.7c-1.1-1.6-2.7-2.4-5-2.4H488c-1.4,0-2.6,0.4-3.4,1.3
		c-0.8,0.9-1.4,2.4-1.6,4.4l-0.3,1.2c-0.2,2.5-0.8,4.3-1.9,5.4c-1.1,1.1-2.5,1.7-4.2,1.7c-1.5,0-2.8-0.5-3.8-1.4
		c-1-1-1.5-2.2-1.5-3.8c0-2.5,0.9-4.7,2.6-6.4c1.7-1.7,4-3,6.9-3.9c2.9-0.9,6-1.3,9.3-1.3c5.5,0,9.7,1.3,12.6,4
		c2.9,2.7,4.4,7,4.4,13v20.7c0,2.7,1.3,4,3.8,4h2.1l0.9,1c-1.1,1.4-2.4,2.5-3.7,3.3c-1.4,0.8-3.2,1.2-5.6,1.2
		c-2.7,0-4.8-0.6-6.4-1.9c-1.6-1.3-2.6-3-3.1-5.1c-2,2.1-3.9,3.8-5.8,5.1C487.4,93.3,484.9,93.9,481.8,93.9z M487.2,88
		c1.2,0,2.4-0.3,3.5-0.8c1.1-0.6,2.5-1.5,4.2-2.8V69.5c-1.6,0.2-3.2,0.6-4.9,0.9c-2.7,0.6-4.8,1.8-6.4,3.4c-1.6,1.7-2.5,3.9-2.5,6.8
		c0,2.5,0.6,4.3,1.7,5.5C483.9,87.4,485.4,88,487.2,88z"/>
</g>
<g>
	<path class="st0" d="M185.4,165.6v-2l1.9-0.6c1.2-0.4,2-1,2.4-1.8c0.4-0.8,0.6-1.9,0.6-3.3V112c0-1.2-0.2-2.2-0.5-3
		c-0.3-0.8-1.1-1.4-2.3-1.8l-2.1-0.8v-2h17.7l17.4,45.4l16.4-45.4h18.1v2l-1.5,0.5c-1.2,0.4-2,0.9-2.4,1.7c-0.4,0.8-0.6,1.8-0.6,3
		c-0.1,3.6-0.1,7.2-0.1,10.7c0,3.6,0,7.2,0,10.8v3.8c0,3.6,0,7.2,0,10.8c0,3.6,0,7.1,0.1,10.7c0,1.3,0.2,2.3,0.5,3
		c0.3,0.7,1.1,1.2,2.2,1.7l1.9,0.6v2h-22.5v-2l2-0.6c1.2-0.4,1.9-1,2.2-1.7c0.3-0.7,0.4-1.7,0.4-2.9v-20.1l0.2-24.9l-18.9,52.3h-5.2
		l-19.9-51.8l0.4,21.1v23c0,1.4,0.2,2.4,0.6,3.2c0.4,0.8,1.1,1.4,2.3,1.7l1.9,0.6v2H185.4z"/>
	<path class="st0" d="M280,119.7c3.9,0,7.2,0.8,10,2.4c2.8,1.6,4.9,3.8,6.4,6.6c1.5,2.8,2.3,6,2.3,9.7c0,0.8,0,1.6-0.1,2.3
		c-0.1,0.7-0.2,1.4-0.4,2h-27.9c0.1,6.4,1.3,10.9,3.6,13.7c2.3,2.8,5.7,4.2,10.2,4.2c3.1,0,5.6-0.5,7.5-1.5c1.9-1,3.7-2.5,5.3-4.3
		l1.5,1.4c-1.9,3.4-4.4,6-7.6,7.9c-3.2,1.9-7,2.8-11.4,2.8c-4.4,0-8.3-0.9-11.6-2.8c-3.3-1.9-6-4.5-7.8-8c-1.9-3.5-2.8-7.7-2.8-12.6
		c0-5.1,1.1-9.4,3.3-12.9c2.2-3.5,5-6.2,8.5-8.1C272.6,120.6,276.2,119.7,280,119.7z M279.6,122.4c-1.8,0-3.4,0.5-4.7,1.5
		c-1.3,1-2.4,2.8-3.2,5.4c-0.8,2.6-1.2,6.2-1.3,10.8H287c0.7-6.2,0.4-10.8-0.7-13.5C285.1,123.8,282.9,122.4,279.6,122.4z"/>
	<path class="st0" d="M303.5,165.6v-1.8l1.5-0.4c2-0.6,3.1-2.1,3.1-4.5v-27.4c-0.1-1.3-0.3-2.3-0.6-3c-0.4-0.7-1.2-1.2-2.4-1.4
		l-1.5-0.4v-1.7l15-5.4l1.1,1l0.6,5.8c2.2-2,4.7-3.6,7.5-4.9c2.8-1.3,5.5-1.9,8.1-1.9c4.1,0,7.2,1.1,9.4,3.3
		c2.2,2.2,3.3,5.6,3.3,10.2V159c0,2.4,1.1,3.9,3.3,4.5l1,0.3v1.8h-21.3v-1.8l1.4-0.4c2-0.7,3.1-2.2,3.1-4.5v-27.5
		c0-2.2-0.5-3.7-1.4-4.7c-0.9-1-2.5-1.5-4.6-1.5c-3,0-6.2,1.3-9.5,4V159c0,2.4,1.1,3.9,3.2,4.5l0.9,0.3v1.8H303.5z"/>
	<path class="st0" d="M373.7,166.9c-3.8,0-6.8-0.9-9-2.8c-2.2-1.9-3.3-5-3.3-9.2c0-1.5,0-2.9,0-4.2c0-1.3,0-2.9,0-4.7v-22h-6.6v-2
		l2.5-0.4c1.8-0.3,3.3-0.9,4.6-1.7c1.3-0.8,2.4-1.9,3.5-3.3l6-8.3h2.8l-0.3,12.9h10.6v2.9h-10.7v31.6c0,2.2,0.5,3.9,1.4,5
		c1,1.1,2.1,1.7,3.6,1.7c1.2,0,2.3-0.3,3.3-0.9c1-0.6,2-1.4,3-2.4l1.2,1.4c-1.2,2-2.8,3.6-4.9,4.8
		C379.4,166.3,376.8,166.9,373.7,166.9z"/>
	<path class="st0" d="M402.9,166.9c-3.5,0-6.5-1-9-3c-2.4-2-3.7-4.9-3.7-8.7c0-3,1.4-5.7,4.3-8.2c2.9-2.5,7.4-4.3,13.6-5.5
		c1.1-0.2,2.3-0.5,3.7-0.7c1.4-0.2,2.8-0.4,4.1-0.7v-6.6c0-4.2-0.5-7.1-1.6-8.7c-1.1-1.6-2.7-2.4-5-2.4h-0.3c-1.4,0-2.5,0.4-3.4,1.3
		c-0.8,0.9-1.4,2.4-1.6,4.4l-0.3,1.2c-0.2,2.5-0.8,4.3-1.9,5.4c-1.1,1.1-2.5,1.7-4.2,1.7c-1.5,0-2.8-0.5-3.8-1.4
		c-1-1-1.5-2.2-1.5-3.8c0-2.5,0.9-4.7,2.6-6.4c1.7-1.7,4-3,6.9-3.9c2.9-0.9,6-1.3,9.3-1.3c5.5,0,9.7,1.3,12.6,4
		c2.9,2.7,4.4,7,4.4,13v20.7c0,2.7,1.3,4,3.8,4h2.1l0.9,1c-1.1,1.4-2.4,2.5-3.7,3.3c-1.4,0.8-3.2,1.2-5.6,1.2
		c-2.7,0-4.8-0.6-6.4-1.9c-1.6-1.3-2.6-3-3.1-5.1c-2,2.1-3.9,3.8-5.8,5.1C408.5,166.2,406,166.9,402.9,166.9z M408.3,161
		c1.2,0,2.4-0.3,3.5-0.8c1.1-0.6,2.5-1.5,4.2-2.8v-14.8c-1.6,0.2-3.2,0.6-4.9,0.9c-2.7,0.6-4.8,1.8-6.4,3.4
		c-1.6,1.7-2.5,3.9-2.5,6.8c0,2.5,0.6,4.3,1.7,5.5C405.1,160.4,406.5,161,408.3,161z"/>
</g>
</svg>
